<svg xmlns="http://www.w3.org/2000/svg" xmlns:xlink="http://www.w3.org/1999/xlink" width="500" zoomAndPan="magnify" viewBox="0 0 375 374.999991" height="500" preserveAspectRatio="xMidYMid meet" version="1.0"><defs><g/><clipPath id="48e5a592c6"><path d="M 108.746094 103 L 266.246094 103 L 266.246094 198.945312 L 108.746094 198.945312 Z M 108.746094 103 " clip-rule="nonzero"/></clipPath></defs><rect x="-37.5" width="450" fill="#ffffff" y="-37.499999" height="449.999989" fill-opacity="1"/><rect x="-37.5" width="450" fill="#ffffff" y="-37.499999" height="449.999989" fill-opacity="1"/><rect x="-37.5" width="450" fill="#ffffff" y="-37.499999" height="449.999989" fill-opacity="1"/><g clip-path="url(#48e5a592c6)"><path fill="#00c2cb" d="M 263.363281 162.324219 L 227.148438 159.449219 C 225.335938 159.289062 223.578125 160.140625 222.507812 161.527344 L 214.988281 126.191406 C 214.507812 124.003906 212.855469 122.300781 210.722656 121.714844 C 209.230469 121.339844 207.628906 121.554688 206.296875 122.351562 C 204.960938 123.152344 204.003906 124.433594 203.628906 125.925781 L 193.761719 164.5625 L 184.429688 108.550781 C 184.054688 106.3125 182.507812 104.550781 180.320312 103.914062 C 177.226562 102.953125 173.921875 104.710938 173.015625 107.855469 L 156.480469 162.59375 L 148.320312 143.617188 C 147.679688 142.179688 146.558594 141.058594 145.121094 140.472656 C 142.132812 139.25 138.71875 140.742188 137.492188 143.726562 L 130.933594 159.980469 L 111.089844 162.753906 C 109.972656 162.910156 109.066406 163.816406 108.957031 164.882812 C 108.746094 166.269531 109.757812 167.546875 111.089844 167.761719 L 135.039062 171.121094 C 137.277344 171.4375 139.464844 170.160156 140.320312 168.082031 L 143.09375 161.207031 L 152.054688 182.097656 C 152.746094 183.699219 154.078125 184.921875 155.734375 185.402344 C 158.828125 186.363281 162.132812 184.605469 163.039062 181.460938 L 176.960938 135.359375 L 186.722656 194.039062 C 187.09375 196.328125 188.800781 198.195312 191.042969 198.78125 C 191.523438 198.886719 192 198.941406 192.480469 198.941406 C 195.09375 198.941406 197.496094 197.179688 198.1875 194.515625 L 208.75 153.160156 L 214.777344 181.511719 C 215.203125 183.378906 216.429688 184.921875 218.136719 185.667969 C 219.574219 186.308594 221.175781 186.308594 222.617188 185.777344 C 224.054688 185.191406 225.230469 184.125 225.871094 182.683594 L 231.042969 170.851562 L 263.363281 168.292969 C 264.859375 168.1875 265.976562 167.015625 266.136719 165.523438 C 266.246094 163.871094 265.019531 162.433594 263.363281 162.324219 Z M 263.363281 162.324219 " fill-opacity="1" fill-rule="nonzero"/></g><g fill="#545454" fill-opacity="1"><g transform="translate(86.322809, 228.904804)"><g><path d="M 12.34375 -17.671875 C 10.90625 -17.671875 9.785156 -17.082031 8.984375 -15.90625 C 8.179688 -14.738281 7.78125 -13.125 7.78125 -11.0625 C 7.78125 -6.769531 9.410156 -4.625 12.671875 -4.625 C 13.660156 -4.625 14.613281 -4.757812 15.53125 -5.03125 C 16.457031 -5.300781 17.390625 -5.632812 18.328125 -6.03125 L 18.328125 -0.9375 C 16.472656 -0.101562 14.367188 0.3125 12.015625 0.3125 C 8.648438 0.3125 6.070312 -0.660156 4.28125 -2.609375 C 2.488281 -4.566406 1.59375 -7.394531 1.59375 -11.09375 C 1.59375 -13.394531 2.023438 -15.421875 2.890625 -17.171875 C 3.753906 -18.921875 5.003906 -20.265625 6.640625 -21.203125 C 8.273438 -22.148438 10.195312 -22.625 12.40625 -22.625 C 14.8125 -22.625 17.113281 -22.097656 19.3125 -21.046875 L 17.46875 -16.296875 C 16.644531 -16.691406 15.816406 -17.019531 14.984375 -17.28125 C 14.160156 -17.539062 13.28125 -17.671875 12.34375 -17.671875 Z M 12.34375 -17.671875 "/></g></g></g><g fill="#545454" fill-opacity="1"><g transform="translate(106.581459, 228.904804)"><g><path d="M 13.328125 0 L 12.1875 -2.28125 L 12.0625 -2.28125 C 11.257812 -1.289062 10.441406 -0.609375 9.609375 -0.234375 C 8.773438 0.128906 7.695312 0.3125 6.375 0.3125 C 4.75 0.3125 3.46875 -0.175781 2.53125 -1.15625 C 1.59375 -2.132812 1.125 -3.507812 1.125 -5.28125 C 1.125 -7.113281 1.765625 -8.476562 3.046875 -9.375 C 4.328125 -10.28125 6.179688 -10.789062 8.609375 -10.90625 L 11.5 -11 L 11.5 -11.234375 C 11.5 -12.660156 10.796875 -13.375 9.390625 -13.375 C 8.128906 -13.375 6.53125 -12.945312 4.59375 -12.09375 L 2.875 -16.03125 C 4.882812 -17.0625 7.425781 -17.578125 10.5 -17.578125 C 12.707031 -17.578125 14.421875 -17.03125 15.640625 -15.9375 C 16.859375 -14.84375 17.46875 -13.304688 17.46875 -11.328125 L 17.46875 0 Z M 8.90625 -3.90625 C 9.625 -3.90625 10.238281 -4.132812 10.75 -4.59375 C 11.269531 -5.050781 11.53125 -5.644531 11.53125 -6.375 L 11.53125 -7.71875 L 10.15625 -7.65625 C 8.195312 -7.582031 7.21875 -6.859375 7.21875 -5.484375 C 7.21875 -4.429688 7.78125 -3.90625 8.90625 -3.90625 Z M 8.90625 -3.90625 "/></g></g></g><g fill="#545454" fill-opacity="1"><g transform="translate(126.032203, 228.904804)"><g><path d="M 12.484375 -17.578125 C 13.003906 -17.578125 13.5 -17.539062 13.96875 -17.46875 L 14.3125 -17.40625 L 13.765625 -11.78125 C 13.285156 -11.894531 12.613281 -11.953125 11.75 -11.953125 C 10.445312 -11.953125 9.5 -11.65625 8.90625 -11.0625 C 8.3125 -10.46875 8.015625 -9.613281 8.015625 -8.5 L 8.015625 0 L 2.0625 0 L 2.0625 -17.28125 L 6.5 -17.28125 L 7.421875 -14.515625 L 7.71875 -14.515625 C 8.21875 -15.429688 8.910156 -16.171875 9.796875 -16.734375 C 10.691406 -17.296875 11.585938 -17.578125 12.484375 -17.578125 Z M 12.484375 -17.578125 "/></g></g></g><g fill="#545454" fill-opacity="1"><g transform="translate(140.681234, 228.904804)"><g><path d="M 7.421875 0.3125 C 6.191406 0.3125 5.117188 -0.0351562 4.203125 -0.734375 C 3.285156 -1.441406 2.570312 -2.476562 2.0625 -3.84375 C 1.5625 -5.207031 1.3125 -6.796875 1.3125 -8.609375 C 1.3125 -11.421875 1.875 -13.617188 3 -15.203125 C 4.132812 -16.785156 5.6875 -17.578125 7.65625 -17.578125 C 8.625 -17.578125 9.46875 -17.382812 10.1875 -17 C 10.914062 -16.613281 11.582031 -15.960938 12.1875 -15.046875 L 12.3125 -15.046875 C 12.113281 -16.398438 12.015625 -17.753906 12.015625 -19.109375 L 12.015625 -23.734375 L 18.03125 -23.734375 L 18.03125 0 L 13.53125 0 L 12.25 -2.1875 L 12.015625 -2.1875 C 10.992188 -0.519531 9.460938 0.3125 7.421875 0.3125 Z M 9.875 -4.40625 C 10.820312 -4.40625 11.488281 -4.703125 11.875 -5.296875 C 12.269531 -5.898438 12.484375 -6.828125 12.515625 -8.078125 L 12.515625 -8.5625 C 12.515625 -10.082031 12.296875 -11.164062 11.859375 -11.8125 C 11.421875 -12.457031 10.738281 -12.78125 9.8125 -12.78125 C 9.019531 -12.78125 8.40625 -12.410156 7.96875 -11.671875 C 7.539062 -10.929688 7.328125 -9.882812 7.328125 -8.53125 C 7.328125 -7.1875 7.546875 -6.160156 7.984375 -5.453125 C 8.421875 -4.753906 9.050781 -4.40625 9.875 -4.40625 Z M 9.875 -4.40625 "/></g></g></g><g fill="#545454" fill-opacity="1"><g transform="translate(160.756962, 228.904804)"><g><path d="M 8.046875 0 L 2.09375 0 L 2.09375 -17.28125 L 8.046875 -17.28125 Z M 1.9375 -21.578125 C 1.9375 -22.472656 2.1875 -23.140625 2.6875 -23.578125 C 3.1875 -24.015625 3.988281 -24.234375 5.09375 -24.234375 C 6.195312 -24.234375 7.003906 -24.007812 7.515625 -23.5625 C 8.023438 -23.113281 8.28125 -22.453125 8.28125 -21.578125 C 8.28125 -19.828125 7.21875 -18.953125 5.09375 -18.953125 C 2.988281 -18.953125 1.9375 -19.828125 1.9375 -21.578125 Z M 1.9375 -21.578125 "/></g></g></g><g fill="#545454" fill-opacity="1"><g transform="translate(170.909152, 228.904804)"><g><path d="M 18.5625 -8.671875 C 18.5625 -5.847656 17.800781 -3.644531 16.28125 -2.0625 C 14.757812 -0.476562 12.628906 0.3125 9.890625 0.3125 C 7.273438 0.3125 5.191406 -0.492188 3.640625 -2.109375 C 2.085938 -3.734375 1.3125 -5.921875 1.3125 -8.671875 C 1.3125 -11.492188 2.070312 -13.679688 3.59375 -15.234375 C 5.113281 -16.796875 7.242188 -17.578125 9.984375 -17.578125 C 11.679688 -17.578125 13.179688 -17.21875 14.484375 -16.5 C 15.785156 -15.78125 16.789062 -14.742188 17.5 -13.390625 C 18.207031 -12.046875 18.5625 -10.472656 18.5625 -8.671875 Z M 7.359375 -8.671875 C 7.359375 -7.191406 7.554688 -6.0625 7.953125 -5.28125 C 8.359375 -4.507812 9.023438 -4.125 9.953125 -4.125 C 10.878906 -4.125 11.53125 -4.507812 11.90625 -5.28125 C 12.289062 -6.0625 12.484375 -7.191406 12.484375 -8.671875 C 12.484375 -10.148438 12.289062 -11.265625 11.90625 -12.015625 C 11.519531 -12.765625 10.859375 -13.140625 9.921875 -13.140625 C 9.015625 -13.140625 8.359375 -12.765625 7.953125 -12.015625 C 7.554688 -11.273438 7.359375 -10.160156 7.359375 -8.671875 Z M 7.359375 -8.671875 "/></g></g></g><g fill="#545454" fill-opacity="1"><g transform="translate(190.801958, 228.904804)"><g><path d="M 12.34375 -17.671875 C 10.90625 -17.671875 9.785156 -17.082031 8.984375 -15.90625 C 8.179688 -14.738281 7.78125 -13.125 7.78125 -11.0625 C 7.78125 -6.769531 9.410156 -4.625 12.671875 -4.625 C 13.660156 -4.625 14.613281 -4.757812 15.53125 -5.03125 C 16.457031 -5.300781 17.390625 -5.632812 18.328125 -6.03125 L 18.328125 -0.9375 C 16.472656 -0.101562 14.367188 0.3125 12.015625 0.3125 C 8.648438 0.3125 6.070312 -0.660156 4.28125 -2.609375 C 2.488281 -4.566406 1.59375 -7.394531 1.59375 -11.09375 C 1.59375 -13.394531 2.023438 -15.421875 2.890625 -17.171875 C 3.753906 -18.921875 5.003906 -20.265625 6.640625 -21.203125 C 8.273438 -22.148438 10.195312 -22.625 12.40625 -22.625 C 14.8125 -22.625 17.113281 -22.097656 19.3125 -21.046875 L 17.46875 -16.296875 C 16.644531 -16.691406 15.816406 -17.019531 14.984375 -17.28125 C 14.160156 -17.539062 13.28125 -17.671875 12.34375 -17.671875 Z M 12.34375 -17.671875 "/></g></g></g><g fill="#545454" fill-opacity="1"><g transform="translate(211.060609, 228.904804)"><g><path d="M 12.9375 0 L 12.9375 -9.421875 C 12.9375 -11.742188 12.25 -12.90625 10.875 -12.90625 C 9.894531 -12.90625 9.171875 -12.492188 8.703125 -11.671875 C 8.242188 -10.859375 8.015625 -9.5 8.015625 -7.59375 L 8.015625 0 L 2.0625 0 L 2.0625 -23.734375 L 8.015625 -23.734375 L 8.015625 -20.359375 C 8.015625 -18.835938 7.9375 -17.097656 7.78125 -15.140625 L 8.046875 -15.140625 C 8.617188 -16.035156 9.296875 -16.664062 10.078125 -17.03125 C 10.859375 -17.394531 11.769531 -17.578125 12.8125 -17.578125 C 14.738281 -17.578125 16.238281 -17.019531 17.3125 -15.90625 C 18.382812 -14.800781 18.921875 -13.242188 18.921875 -11.234375 L 18.921875 0 Z M 12.9375 0 "/></g></g></g><g fill="#545454" fill-opacity="1"><g transform="translate(231.974731, 228.904804)"><g><path d="M 10.40625 0.3125 C 7.519531 0.3125 5.28125 -0.453125 3.6875 -1.984375 C 2.101562 -3.515625 1.3125 -5.695312 1.3125 -8.53125 C 1.3125 -11.445312 2.046875 -13.679688 3.515625 -15.234375 C 4.992188 -16.796875 7.101562 -17.578125 9.84375 -17.578125 C 12.4375 -17.578125 14.441406 -16.898438 15.859375 -15.546875 C 17.285156 -14.191406 18 -12.238281 18 -9.6875 L 18 -7.03125 L 7.328125 -7.03125 C 7.367188 -6.0625 7.722656 -5.300781 8.390625 -4.75 C 9.054688 -4.207031 9.96875 -3.9375 11.125 -3.9375 C 12.164062 -3.9375 13.125 -4.035156 14 -4.234375 C 14.882812 -4.429688 15.84375 -4.769531 16.875 -5.25 L 16.875 -0.953125 C 15.9375 -0.484375 14.96875 -0.15625 13.96875 0.03125 C 12.96875 0.21875 11.78125 0.3125 10.40625 0.3125 Z M 10.046875 -13.53125 C 9.347656 -13.53125 8.757812 -13.304688 8.28125 -12.859375 C 7.8125 -12.421875 7.535156 -11.726562 7.453125 -10.78125 L 12.578125 -10.78125 C 12.554688 -11.613281 12.316406 -12.28125 11.859375 -12.78125 C 11.410156 -13.28125 10.804688 -13.53125 10.046875 -13.53125 Z M 10.046875 -13.53125 "/></g></g></g><g fill="#545454" fill-opacity="1"><g transform="translate(251.273039, 228.904804)"><g><path d="M 9.921875 0.3125 C 7.097656 0.3125 4.957031 -0.445312 3.5 -1.96875 C 2.039062 -3.5 1.3125 -5.695312 1.3125 -8.5625 C 1.3125 -11.425781 2.097656 -13.644531 3.671875 -15.21875 C 5.253906 -16.789062 7.5 -17.578125 10.40625 -17.578125 C 12.40625 -17.578125 14.289062 -17.140625 16.0625 -16.265625 L 14.3125 -11.859375 C 13.582031 -12.179688 12.910156 -12.4375 12.296875 -12.625 C 11.691406 -12.8125 11.0625 -12.90625 10.40625 -12.90625 C 9.4375 -12.90625 8.6875 -12.523438 8.15625 -11.765625 C 7.625 -11.015625 7.359375 -9.957031 7.359375 -8.59375 C 7.359375 -5.820312 8.382812 -4.4375 10.4375 -4.4375 C 12.1875 -4.4375 13.863281 -4.945312 15.46875 -5.96875 L 15.46875 -1.21875 C 13.925781 -0.195312 12.078125 0.3125 9.921875 0.3125 Z M 9.921875 0.3125 "/></g></g></g><g fill="#545454" fill-opacity="1"><g transform="translate(268.101896, 228.904804)"><g><path d="M 7.84375 -9.71875 C 8.5625 -10.863281 9.175781 -11.757812 9.6875 -12.40625 L 13.5625 -17.28125 L 20.203125 -17.28125 L 14.21875 -9.921875 L 20.59375 0 L 13.765625 0 L 9.984375 -6.1875 L 8.046875 -4.71875 L 8.046875 0 L 2.0625 0 L 2.0625 -23.734375 L 8.046875 -23.734375 L 8.046875 -14.390625 C 8.046875 -12.796875 7.9375 -11.238281 7.71875 -9.71875 Z M 7.84375 -9.71875 "/></g></g></g><g fill="#545454" fill-opacity="1"><g transform="translate(82.595535, 245.766063)"><g><path d="M 2.6875 -3.28125 L 4.8125 -7.234375 L 5.359375 -7.234375 L 2.9375 -2.796875 L 2.9375 0 L 2.421875 0 L 2.421875 -2.765625 L 0 -7.234375 L 0.578125 -7.234375 Z M 2.6875 -3.28125 "/></g></g></g><g fill="#545454" fill-opacity="1"><g transform="translate(87.946025, 245.766063)"><g><path d="M 5.359375 -2.703125 C 5.359375 -1.816406 5.144531 -1.128906 4.71875 -0.640625 C 4.289062 -0.148438 3.703125 0.09375 2.953125 0.09375 C 2.484375 0.09375 2.066406 -0.015625 1.703125 -0.234375 C 1.335938 -0.460938 1.0625 -0.789062 0.875 -1.21875 C 0.6875 -1.644531 0.59375 -2.140625 0.59375 -2.703125 C 0.59375 -3.578125 0.800781 -4.257812 1.21875 -4.75 C 1.644531 -5.238281 2.234375 -5.484375 2.984375 -5.484375 C 3.722656 -5.484375 4.300781 -5.234375 4.71875 -4.734375 C 5.144531 -4.242188 5.359375 -3.566406 5.359375 -2.703125 Z M 1.109375 -2.703125 C 1.109375 -1.960938 1.269531 -1.382812 1.59375 -0.96875 C 1.914062 -0.550781 2.375 -0.34375 2.96875 -0.34375 C 3.5625 -0.34375 4.019531 -0.550781 4.34375 -0.96875 C 4.675781 -1.382812 4.84375 -1.960938 4.84375 -2.703125 C 4.84375 -3.441406 4.675781 -4.015625 4.34375 -4.421875 C 4.019531 -4.835938 3.5625 -5.046875 2.96875 -5.046875 C 2.363281 -5.046875 1.898438 -4.835938 1.578125 -4.421875 C 1.265625 -4.015625 1.109375 -3.441406 1.109375 -2.703125 Z M 1.109375 -2.703125 "/></g></g></g><g fill="#545454" fill-opacity="1"><g transform="translate(93.885509, 245.766063)"><g><path d="M 1.328125 -5.375 L 1.328125 -1.890625 C 1.328125 -1.347656 1.441406 -0.953125 1.671875 -0.703125 C 1.898438 -0.460938 2.253906 -0.34375 2.734375 -0.34375 C 3.367188 -0.34375 3.835938 -0.503906 4.140625 -0.828125 C 4.441406 -1.148438 4.59375 -1.675781 4.59375 -2.40625 L 4.59375 -5.375 L 5.078125 -5.375 L 5.078125 0 L 4.671875 0 L 4.578125 -0.75 L 4.546875 -0.75 C 4.191406 -0.1875 3.566406 0.09375 2.671875 0.09375 C 1.453125 0.09375 0.84375 -0.554688 0.84375 -1.859375 L 0.84375 -5.375 Z M 1.328125 -5.375 "/></g></g></g><g fill="#545454" fill-opacity="1"><g transform="translate(99.864588, 245.766063)"><g><path d="M 3.015625 -5.484375 C 3.242188 -5.484375 3.488281 -5.460938 3.75 -5.421875 L 3.65625 -4.953125 C 3.4375 -5.003906 3.207031 -5.03125 2.96875 -5.03125 C 2.5 -5.03125 2.117188 -4.832031 1.828125 -4.4375 C 1.535156 -4.050781 1.390625 -3.5625 1.390625 -2.96875 L 1.390625 0 L 0.90625 0 L 0.90625 -5.375 L 1.3125 -5.375 L 1.359375 -4.40625 L 1.40625 -4.40625 C 1.625 -4.800781 1.859375 -5.078125 2.109375 -5.234375 C 2.359375 -5.398438 2.660156 -5.484375 3.015625 -5.484375 Z M 3.015625 -5.484375 "/></g></g></g><g fill="#545454" fill-opacity="1"><g transform="translate(103.809401, 245.766063)"><g/></g></g><g fill="#545454" fill-opacity="1"><g transform="translate(106.442572, 245.766063)"><g><path d="M 1.53125 -3.15625 L 1.53125 0 L 1.03125 0 L 1.03125 -7.234375 L 2.75 -7.234375 C 3.644531 -7.234375 4.304688 -7.066406 4.734375 -6.734375 C 5.160156 -6.410156 5.375 -5.914062 5.375 -5.25 C 5.375 -4.757812 5.242188 -4.347656 4.984375 -4.015625 C 4.734375 -3.679688 4.347656 -3.441406 3.828125 -3.296875 L 5.796875 0 L 5.1875 0 L 3.328125 -3.15625 Z M 1.53125 -3.59375 L 2.90625 -3.59375 C 3.519531 -3.59375 3.992188 -3.726562 4.328125 -4 C 4.671875 -4.269531 4.84375 -4.671875 4.84375 -5.203125 C 4.84375 -5.753906 4.675781 -6.15625 4.34375 -6.40625 C 4.007812 -6.65625 3.472656 -6.78125 2.734375 -6.78125 L 1.53125 -6.78125 Z M 1.53125 -3.59375 "/></g></g></g><g fill="#545454" fill-opacity="1"><g transform="translate(112.466204, 245.766063)"><g><path d="M 3.078125 0.09375 C 2.296875 0.09375 1.6875 -0.144531 1.25 -0.625 C 0.8125 -1.101562 0.59375 -1.78125 0.59375 -2.65625 C 0.59375 -3.507812 0.800781 -4.191406 1.21875 -4.703125 C 1.644531 -5.222656 2.21875 -5.484375 2.9375 -5.484375 C 3.5625 -5.484375 4.054688 -5.257812 4.421875 -4.8125 C 4.796875 -4.375 4.984375 -3.773438 4.984375 -3.015625 L 4.984375 -2.625 L 1.109375 -2.625 C 1.109375 -1.882812 1.273438 -1.316406 1.609375 -0.921875 C 1.953125 -0.535156 2.441406 -0.34375 3.078125 -0.34375 C 3.378906 -0.34375 3.644531 -0.363281 3.875 -0.40625 C 4.113281 -0.445312 4.410156 -0.539062 4.765625 -0.6875 L 4.765625 -0.25 C 4.460938 -0.113281 4.179688 -0.0234375 3.921875 0.015625 C 3.671875 0.0664062 3.390625 0.09375 3.078125 0.09375 Z M 2.9375 -5.046875 C 2.414062 -5.046875 2 -4.875 1.6875 -4.53125 C 1.375 -4.195312 1.191406 -3.707031 1.140625 -3.0625 L 4.46875 -3.0625 C 4.46875 -3.6875 4.332031 -4.171875 4.0625 -4.515625 C 3.789062 -4.867188 3.414062 -5.046875 2.9375 -5.046875 Z M 2.9375 -5.046875 "/></g></g></g><g fill="#545454" fill-opacity="1"><g transform="translate(118.02952, 245.766063)"><g><path d="M 1.390625 0 L 0.90625 0 L 0.90625 -7.703125 L 1.390625 -7.703125 Z M 1.390625 0 "/></g></g></g><g fill="#545454" fill-opacity="1"><g transform="translate(120.321176, 245.766063)"><g><path d="M 1.390625 0 L 0.90625 0 L 0.90625 -5.375 L 1.390625 -5.375 Z M 0.828125 -6.875 C 0.828125 -7.195312 0.929688 -7.359375 1.140625 -7.359375 C 1.242188 -7.359375 1.320312 -7.316406 1.375 -7.234375 C 1.4375 -7.148438 1.46875 -7.03125 1.46875 -6.875 C 1.46875 -6.726562 1.4375 -6.609375 1.375 -6.515625 C 1.320312 -6.429688 1.242188 -6.390625 1.140625 -6.390625 C 0.929688 -6.390625 0.828125 -6.550781 0.828125 -6.875 Z M 0.828125 -6.875 "/></g></g></g><g fill="#545454" fill-opacity="1"><g transform="translate(122.612832, 245.766063)"><g><path d="M 4.171875 0 L 4.046875 -0.859375 L 4 -0.859375 C 3.726562 -0.503906 3.453125 -0.253906 3.171875 -0.109375 C 2.890625 0.0234375 2.550781 0.09375 2.15625 0.09375 C 1.625 0.09375 1.210938 -0.0390625 0.921875 -0.3125 C 0.628906 -0.582031 0.484375 -0.957031 0.484375 -1.4375 C 0.484375 -1.957031 0.703125 -2.363281 1.140625 -2.65625 C 1.578125 -2.945312 2.210938 -3.097656 3.046875 -3.109375 L 4.0625 -3.140625 L 4.0625 -3.5 C 4.0625 -4.007812 3.957031 -4.394531 3.75 -4.65625 C 3.539062 -4.914062 3.207031 -5.046875 2.75 -5.046875 C 2.25 -5.046875 1.734375 -4.910156 1.203125 -4.640625 L 1.015625 -5.0625 C 1.609375 -5.332031 2.191406 -5.46875 2.765625 -5.46875 C 3.359375 -5.46875 3.800781 -5.316406 4.09375 -5.015625 C 4.382812 -4.710938 4.53125 -4.234375 4.53125 -3.578125 L 4.53125 0 Z M 2.1875 -0.34375 C 2.757812 -0.34375 3.210938 -0.503906 3.546875 -0.828125 C 3.878906 -1.160156 4.046875 -1.617188 4.046875 -2.203125 L 4.046875 -2.734375 L 3.109375 -2.703125 C 2.347656 -2.660156 1.804688 -2.539062 1.484375 -2.34375 C 1.160156 -2.144531 1 -1.832031 1 -1.40625 C 1 -1.070312 1.101562 -0.8125 1.3125 -0.625 C 1.519531 -0.4375 1.8125 -0.34375 2.1875 -0.34375 Z M 2.1875 -0.34375 "/></g></g></g><g fill="#545454" fill-opacity="1"><g transform="translate(127.983121, 245.766063)"><g><path d="M 3.171875 -5.484375 C 3.921875 -5.484375 4.488281 -5.242188 4.875 -4.765625 C 5.257812 -4.296875 5.453125 -3.609375 5.453125 -2.703125 C 5.453125 -1.804688 5.25 -1.113281 4.84375 -0.625 C 4.445312 -0.144531 3.882812 0.09375 3.15625 0.09375 C 2.769531 0.09375 2.421875 0.015625 2.109375 -0.140625 C 1.804688 -0.296875 1.566406 -0.519531 1.390625 -0.8125 L 1.34375 -0.8125 L 1.203125 0 L 0.90625 0 L 0.90625 -7.703125 L 1.390625 -7.703125 L 1.390625 -5.765625 C 1.390625 -5.472656 1.382812 -5.207031 1.375 -4.96875 L 1.359375 -4.546875 L 1.390625 -4.546875 C 1.597656 -4.867188 1.84375 -5.101562 2.125 -5.25 C 2.414062 -5.40625 2.765625 -5.484375 3.171875 -5.484375 Z M 3.15625 -5.046875 C 2.53125 -5.046875 2.078125 -4.863281 1.796875 -4.5 C 1.523438 -4.132812 1.390625 -3.535156 1.390625 -2.703125 L 1.390625 -2.609375 C 1.390625 -1.796875 1.53125 -1.210938 1.8125 -0.859375 C 2.101562 -0.515625 2.550781 -0.34375 3.15625 -0.34375 C 3.738281 -0.34375 4.175781 -0.546875 4.46875 -0.953125 C 4.769531 -1.359375 4.921875 -1.941406 4.921875 -2.703125 C 4.921875 -4.265625 4.332031 -5.046875 3.15625 -5.046875 Z M 3.15625 -5.046875 "/></g></g></g><g fill="#545454" fill-opacity="1"><g transform="translate(134.016652, 245.766063)"><g><path d="M 1.390625 0 L 0.90625 0 L 0.90625 -7.703125 L 1.390625 -7.703125 Z M 1.390625 0 "/></g></g></g><g fill="#545454" fill-opacity="1"><g transform="translate(136.308308, 245.766063)"><g><path d="M 3.078125 0.09375 C 2.296875 0.09375 1.6875 -0.144531 1.25 -0.625 C 0.8125 -1.101562 0.59375 -1.78125 0.59375 -2.65625 C 0.59375 -3.507812 0.800781 -4.191406 1.21875 -4.703125 C 1.644531 -5.222656 2.21875 -5.484375 2.9375 -5.484375 C 3.5625 -5.484375 4.054688 -5.257812 4.421875 -4.8125 C 4.796875 -4.375 4.984375 -3.773438 4.984375 -3.015625 L 4.984375 -2.625 L 1.109375 -2.625 C 1.109375 -1.882812 1.273438 -1.316406 1.609375 -0.921875 C 1.953125 -0.535156 2.441406 -0.34375 3.078125 -0.34375 C 3.378906 -0.34375 3.644531 -0.363281 3.875 -0.40625 C 4.113281 -0.445312 4.410156 -0.539062 4.765625 -0.6875 L 4.765625 -0.25 C 4.460938 -0.113281 4.179688 -0.0234375 3.921875 0.015625 C 3.671875 0.0664062 3.390625 0.09375 3.078125 0.09375 Z M 2.9375 -5.046875 C 2.414062 -5.046875 2 -4.875 1.6875 -4.53125 C 1.375 -4.195312 1.191406 -3.707031 1.140625 -3.0625 L 4.46875 -3.0625 C 4.46875 -3.6875 4.332031 -4.171875 4.0625 -4.515625 C 3.789062 -4.867188 3.414062 -5.046875 2.9375 -5.046875 Z M 2.9375 -5.046875 "/></g></g></g><g fill="#545454" fill-opacity="1"><g transform="translate(141.871624, 245.766063)"><g/></g></g><g fill="#545454" fill-opacity="1"><g transform="translate(144.504795, 245.766063)"><g><path d="M 4.109375 -6.890625 C 3.203125 -6.890625 2.488281 -6.597656 1.96875 -6.015625 C 1.445312 -5.429688 1.1875 -4.632812 1.1875 -3.625 C 1.1875 -2.59375 1.429688 -1.789062 1.921875 -1.21875 C 2.410156 -0.644531 3.113281 -0.359375 4.03125 -0.359375 C 4.644531 -0.359375 5.203125 -0.4375 5.703125 -0.59375 L 5.703125 -0.15625 C 5.222656 0.0078125 4.628906 0.09375 3.921875 0.09375 C 2.898438 0.09375 2.097656 -0.234375 1.515625 -0.890625 C 0.929688 -1.546875 0.640625 -2.460938 0.640625 -3.640625 C 0.640625 -4.378906 0.773438 -5.023438 1.046875 -5.578125 C 1.328125 -6.140625 1.726562 -6.570312 2.25 -6.875 C 2.78125 -7.1875 3.390625 -7.34375 4.078125 -7.34375 C 4.785156 -7.34375 5.421875 -7.210938 5.984375 -6.953125 L 5.78125 -6.484375 C 5.25 -6.753906 4.691406 -6.890625 4.109375 -6.890625 Z M 4.109375 -6.890625 "/></g></g></g><g fill="#545454" fill-opacity="1"><g transform="translate(150.800647, 245.766063)"><g><path d="M 4.171875 0 L 4.046875 -0.859375 L 4 -0.859375 C 3.726562 -0.503906 3.453125 -0.253906 3.171875 -0.109375 C 2.890625 0.0234375 2.550781 0.09375 2.15625 0.09375 C 1.625 0.09375 1.210938 -0.0390625 0.921875 -0.3125 C 0.628906 -0.582031 0.484375 -0.957031 0.484375 -1.4375 C 0.484375 -1.957031 0.703125 -2.363281 1.140625 -2.65625 C 1.578125 -2.945312 2.210938 -3.097656 3.046875 -3.109375 L 4.0625 -3.140625 L 4.0625 -3.5 C 4.0625 -4.007812 3.957031 -4.394531 3.75 -4.65625 C 3.539062 -4.914062 3.207031 -5.046875 2.75 -5.046875 C 2.25 -5.046875 1.734375 -4.910156 1.203125 -4.640625 L 1.015625 -5.0625 C 1.609375 -5.332031 2.191406 -5.46875 2.765625 -5.46875 C 3.359375 -5.46875 3.800781 -5.316406 4.09375 -5.015625 C 4.382812 -4.710938 4.53125 -4.234375 4.53125 -3.578125 L 4.53125 0 Z M 2.1875 -0.34375 C 2.757812 -0.34375 3.210938 -0.503906 3.546875 -0.828125 C 3.878906 -1.160156 4.046875 -1.617188 4.046875 -2.203125 L 4.046875 -2.734375 L 3.109375 -2.703125 C 2.347656 -2.660156 1.804688 -2.539062 1.484375 -2.34375 C 1.160156 -2.144531 1 -1.832031 1 -1.40625 C 1 -1.070312 1.101562 -0.8125 1.3125 -0.625 C 1.519531 -0.4375 1.8125 -0.34375 2.1875 -0.34375 Z M 2.1875 -0.34375 "/></g></g></g><g fill="#545454" fill-opacity="1"><g transform="translate(156.170936, 245.766063)"><g><path d="M 3.015625 -5.484375 C 3.242188 -5.484375 3.488281 -5.460938 3.75 -5.421875 L 3.65625 -4.953125 C 3.4375 -5.003906 3.207031 -5.03125 2.96875 -5.03125 C 2.5 -5.03125 2.117188 -4.832031 1.828125 -4.4375 C 1.535156 -4.050781 1.390625 -3.5625 1.390625 -2.96875 L 1.390625 0 L 0.90625 0 L 0.90625 -5.375 L 1.3125 -5.375 L 1.359375 -4.40625 L 1.40625 -4.40625 C 1.625 -4.800781 1.859375 -5.078125 2.109375 -5.234375 C 2.359375 -5.398438 2.660156 -5.484375 3.015625 -5.484375 Z M 3.015625 -5.484375 "/></g></g></g><g fill="#545454" fill-opacity="1"><g transform="translate(160.115748, 245.766063)"><g><path d="M 2.875 -5.484375 C 3.257812 -5.484375 3.59375 -5.410156 3.875 -5.265625 C 4.164062 -5.128906 4.421875 -4.890625 4.640625 -4.546875 L 4.671875 -4.546875 C 4.648438 -4.960938 4.640625 -5.367188 4.640625 -5.765625 L 4.640625 -7.703125 L 5.125 -7.703125 L 5.125 0 L 4.8125 0 L 4.6875 -0.828125 L 4.640625 -0.828125 C 4.234375 -0.210938 3.644531 0.09375 2.875 0.09375 C 2.132812 0.09375 1.566406 -0.132812 1.171875 -0.59375 C 0.785156 -1.050781 0.59375 -1.722656 0.59375 -2.609375 C 0.59375 -3.546875 0.785156 -4.257812 1.171875 -4.75 C 1.554688 -5.238281 2.125 -5.484375 2.875 -5.484375 Z M 2.875 -5.046875 C 2.28125 -5.046875 1.835938 -4.835938 1.546875 -4.421875 C 1.253906 -4.003906 1.109375 -3.40625 1.109375 -2.625 C 1.109375 -1.101562 1.695312 -0.34375 2.875 -0.34375 C 3.488281 -0.34375 3.9375 -0.515625 4.21875 -0.859375 C 4.5 -1.210938 4.640625 -1.796875 4.640625 -2.609375 L 4.640625 -2.703125 C 4.640625 -3.535156 4.5 -4.132812 4.21875 -4.5 C 3.945312 -4.863281 3.5 -5.046875 2.875 -5.046875 Z M 2.875 -5.046875 "/></g></g></g><g fill="#545454" fill-opacity="1"><g transform="translate(166.149279, 245.766063)"><g><path d="M 1.390625 0 L 0.90625 0 L 0.90625 -5.375 L 1.390625 -5.375 Z M 0.828125 -6.875 C 0.828125 -7.195312 0.929688 -7.359375 1.140625 -7.359375 C 1.242188 -7.359375 1.320312 -7.316406 1.375 -7.234375 C 1.4375 -7.148438 1.46875 -7.03125 1.46875 -6.875 C 1.46875 -6.726562 1.4375 -6.609375 1.375 -6.515625 C 1.320312 -6.429688 1.242188 -6.390625 1.140625 -6.390625 C 0.929688 -6.390625 0.828125 -6.550781 0.828125 -6.875 Z M 0.828125 -6.875 "/></g></g></g><g fill="#545454" fill-opacity="1"><g transform="translate(168.440935, 245.766063)"><g><path d="M 5.359375 -2.703125 C 5.359375 -1.816406 5.144531 -1.128906 4.71875 -0.640625 C 4.289062 -0.148438 3.703125 0.09375 2.953125 0.09375 C 2.484375 0.09375 2.066406 -0.015625 1.703125 -0.234375 C 1.335938 -0.460938 1.0625 -0.789062 0.875 -1.21875 C 0.6875 -1.644531 0.59375 -2.140625 0.59375 -2.703125 C 0.59375 -3.578125 0.800781 -4.257812 1.21875 -4.75 C 1.644531 -5.238281 2.234375 -5.484375 2.984375 -5.484375 C 3.722656 -5.484375 4.300781 -5.234375 4.71875 -4.734375 C 5.144531 -4.242188 5.359375 -3.566406 5.359375 -2.703125 Z M 1.109375 -2.703125 C 1.109375 -1.960938 1.269531 -1.382812 1.59375 -0.96875 C 1.914062 -0.550781 2.375 -0.34375 2.96875 -0.34375 C 3.5625 -0.34375 4.019531 -0.550781 4.34375 -0.96875 C 4.675781 -1.382812 4.84375 -1.960938 4.84375 -2.703125 C 4.84375 -3.441406 4.675781 -4.015625 4.34375 -4.421875 C 4.019531 -4.835938 3.5625 -5.046875 2.96875 -5.046875 C 2.363281 -5.046875 1.898438 -4.835938 1.578125 -4.421875 C 1.265625 -4.015625 1.109375 -3.441406 1.109375 -2.703125 Z M 1.109375 -2.703125 "/></g></g></g><g fill="#545454" fill-opacity="1"><g transform="translate(174.380418, 245.766063)"><g><path d="M 2.078125 0 L 0 -5.375 L 0.5 -5.375 L 1.890625 -1.71875 C 2.078125 -1.25 2.21875 -0.84375 2.3125 -0.5 L 2.34375 -0.5 C 2.476562 -0.945312 2.617188 -1.359375 2.765625 -1.734375 L 4.15625 -5.375 L 4.65625 -5.375 L 2.578125 0 Z M 2.078125 0 "/></g></g></g><g fill="#545454" fill-opacity="1"><g transform="translate(179.033014, 245.766063)"><g><path d="M 4.171875 0 L 4.046875 -0.859375 L 4 -0.859375 C 3.726562 -0.503906 3.453125 -0.253906 3.171875 -0.109375 C 2.890625 0.0234375 2.550781 0.09375 2.15625 0.09375 C 1.625 0.09375 1.210938 -0.0390625 0.921875 -0.3125 C 0.628906 -0.582031 0.484375 -0.957031 0.484375 -1.4375 C 0.484375 -1.957031 0.703125 -2.363281 1.140625 -2.65625 C 1.578125 -2.945312 2.210938 -3.097656 3.046875 -3.109375 L 4.0625 -3.140625 L 4.0625 -3.5 C 4.0625 -4.007812 3.957031 -4.394531 3.75 -4.65625 C 3.539062 -4.914062 3.207031 -5.046875 2.75 -5.046875 C 2.25 -5.046875 1.734375 -4.910156 1.203125 -4.640625 L 1.015625 -5.0625 C 1.609375 -5.332031 2.191406 -5.46875 2.765625 -5.46875 C 3.359375 -5.46875 3.800781 -5.316406 4.09375 -5.015625 C 4.382812 -4.710938 4.53125 -4.234375 4.53125 -3.578125 L 4.53125 0 Z M 2.1875 -0.34375 C 2.757812 -0.34375 3.210938 -0.503906 3.546875 -0.828125 C 3.878906 -1.160156 4.046875 -1.617188 4.046875 -2.203125 L 4.046875 -2.734375 L 3.109375 -2.703125 C 2.347656 -2.660156 1.804688 -2.539062 1.484375 -2.34375 C 1.160156 -2.144531 1 -1.832031 1 -1.40625 C 1 -1.070312 1.101562 -0.8125 1.3125 -0.625 C 1.519531 -0.4375 1.8125 -0.34375 2.1875 -0.34375 Z M 2.1875 -0.34375 "/></g></g></g><g fill="#545454" fill-opacity="1"><g transform="translate(184.403302, 245.766063)"><g><path d="M 4.234375 -1.40625 C 4.234375 -0.914062 4.050781 -0.539062 3.6875 -0.28125 C 3.320312 -0.03125 2.800781 0.09375 2.125 0.09375 C 1.40625 0.09375 0.835938 -0.015625 0.421875 -0.234375 L 0.421875 -0.765625 C 0.960938 -0.492188 1.53125 -0.359375 2.125 -0.359375 C 2.65625 -0.359375 3.054688 -0.445312 3.328125 -0.625 C 3.609375 -0.800781 3.75 -1.035156 3.75 -1.328125 C 3.75 -1.597656 3.640625 -1.820312 3.421875 -2 C 3.203125 -2.1875 2.84375 -2.375 2.34375 -2.5625 C 1.800781 -2.75 1.421875 -2.910156 1.203125 -3.046875 C 0.984375 -3.191406 0.816406 -3.351562 0.703125 -3.53125 C 0.597656 -3.707031 0.546875 -3.921875 0.546875 -4.171875 C 0.546875 -4.578125 0.710938 -4.894531 1.046875 -5.125 C 1.390625 -5.363281 1.863281 -5.484375 2.46875 -5.484375 C 3.050781 -5.484375 3.601562 -5.375 4.125 -5.15625 L 3.953125 -4.71875 C 3.421875 -4.9375 2.925781 -5.046875 2.46875 -5.046875 C 2.03125 -5.046875 1.679688 -4.972656 1.421875 -4.828125 C 1.171875 -4.679688 1.046875 -4.476562 1.046875 -4.21875 C 1.046875 -3.9375 1.144531 -3.710938 1.34375 -3.546875 C 1.539062 -3.378906 1.929688 -3.191406 2.515625 -2.984375 C 3.003906 -2.804688 3.359375 -2.644531 3.578125 -2.5 C 3.796875 -2.363281 3.957031 -2.207031 4.0625 -2.03125 C 4.175781 -1.851562 4.234375 -1.644531 4.234375 -1.40625 Z M 4.234375 -1.40625 "/></g></g></g><g fill="#545454" fill-opacity="1"><g transform="translate(189.125191, 245.766063)"><g><path d="M 3.046875 0.09375 C 2.273438 0.09375 1.671875 -0.144531 1.234375 -0.625 C 0.804688 -1.113281 0.59375 -1.789062 0.59375 -2.65625 C 0.59375 -3.550781 0.816406 -4.242188 1.265625 -4.734375 C 1.722656 -5.234375 2.34375 -5.484375 3.125 -5.484375 C 3.59375 -5.484375 4.039062 -5.40625 4.46875 -5.25 L 4.328125 -4.8125 C 3.859375 -4.96875 3.453125 -5.046875 3.109375 -5.046875 C 2.453125 -5.046875 1.953125 -4.835938 1.609375 -4.421875 C 1.273438 -4.015625 1.109375 -3.429688 1.109375 -2.671875 C 1.109375 -1.941406 1.273438 -1.367188 1.609375 -0.953125 C 1.953125 -0.546875 2.429688 -0.34375 3.046875 -0.34375 C 3.523438 -0.34375 3.976562 -0.429688 4.40625 -0.609375 L 4.40625 -0.15625 C 4.0625 0.0078125 3.609375 0.09375 3.046875 0.09375 Z M 3.046875 0.09375 "/></g></g></g><g fill="#545454" fill-opacity="1"><g transform="translate(193.941128, 245.766063)"><g><path d="M 1.328125 -5.375 L 1.328125 -1.890625 C 1.328125 -1.347656 1.441406 -0.953125 1.671875 -0.703125 C 1.898438 -0.460938 2.253906 -0.34375 2.734375 -0.34375 C 3.367188 -0.34375 3.835938 -0.503906 4.140625 -0.828125 C 4.441406 -1.148438 4.59375 -1.675781 4.59375 -2.40625 L 4.59375 -5.375 L 5.078125 -5.375 L 5.078125 0 L 4.671875 0 L 4.578125 -0.75 L 4.546875 -0.75 C 4.191406 -0.1875 3.566406 0.09375 2.671875 0.09375 C 1.453125 0.09375 0.84375 -0.554688 0.84375 -1.859375 L 0.84375 -5.375 Z M 1.328125 -5.375 "/></g></g></g><g fill="#545454" fill-opacity="1"><g transform="translate(199.920208, 245.766063)"><g><path d="M 1.390625 0 L 0.90625 0 L 0.90625 -7.703125 L 1.390625 -7.703125 Z M 1.390625 0 "/></g></g></g><g fill="#545454" fill-opacity="1"><g transform="translate(202.211864, 245.766063)"><g><path d="M 4.171875 0 L 4.046875 -0.859375 L 4 -0.859375 C 3.726562 -0.503906 3.453125 -0.253906 3.171875 -0.109375 C 2.890625 0.0234375 2.550781 0.09375 2.15625 0.09375 C 1.625 0.09375 1.210938 -0.0390625 0.921875 -0.3125 C 0.628906 -0.582031 0.484375 -0.957031 0.484375 -1.4375 C 0.484375 -1.957031 0.703125 -2.363281 1.140625 -2.65625 C 1.578125 -2.945312 2.210938 -3.097656 3.046875 -3.109375 L 4.0625 -3.140625 L 4.0625 -3.5 C 4.0625 -4.007812 3.957031 -4.394531 3.75 -4.65625 C 3.539062 -4.914062 3.207031 -5.046875 2.75 -5.046875 C 2.25 -5.046875 1.734375 -4.910156 1.203125 -4.640625 L 1.015625 -5.0625 C 1.609375 -5.332031 2.191406 -5.46875 2.765625 -5.46875 C 3.359375 -5.46875 3.800781 -5.316406 4.09375 -5.015625 C 4.382812 -4.710938 4.53125 -4.234375 4.53125 -3.578125 L 4.53125 0 Z M 2.1875 -0.34375 C 2.757812 -0.34375 3.210938 -0.503906 3.546875 -0.828125 C 3.878906 -1.160156 4.046875 -1.617188 4.046875 -2.203125 L 4.046875 -2.734375 L 3.109375 -2.703125 C 2.347656 -2.660156 1.804688 -2.539062 1.484375 -2.34375 C 1.160156 -2.144531 1 -1.832031 1 -1.40625 C 1 -1.070312 1.101562 -0.8125 1.3125 -0.625 C 1.519531 -0.4375 1.8125 -0.34375 2.1875 -0.34375 Z M 2.1875 -0.34375 "/></g></g></g><g fill="#545454" fill-opacity="1"><g transform="translate(207.582153, 245.766063)"><g><path d="M 3.015625 -5.484375 C 3.242188 -5.484375 3.488281 -5.460938 3.75 -5.421875 L 3.65625 -4.953125 C 3.4375 -5.003906 3.207031 -5.03125 2.96875 -5.03125 C 2.5 -5.03125 2.117188 -4.832031 1.828125 -4.4375 C 1.535156 -4.050781 1.390625 -3.5625 1.390625 -2.96875 L 1.390625 0 L 0.90625 0 L 0.90625 -5.375 L 1.3125 -5.375 L 1.359375 -4.40625 L 1.40625 -4.40625 C 1.625 -4.800781 1.859375 -5.078125 2.109375 -5.234375 C 2.359375 -5.398438 2.660156 -5.484375 3.015625 -5.484375 Z M 3.015625 -5.484375 "/></g></g></g><g fill="#545454" fill-opacity="1"><g transform="translate(211.526965, 245.766063)"><g/></g></g><g fill="#545454" fill-opacity="1"><g transform="translate(214.160136, 245.766063)"><g><path d="M 6.515625 -3.6875 C 6.515625 -2.46875 6.195312 -1.546875 5.5625 -0.921875 C 4.925781 -0.304688 3.992188 0 2.765625 0 L 1.03125 0 L 1.03125 -7.234375 L 2.984375 -7.234375 C 4.140625 -7.234375 5.015625 -6.929688 5.609375 -6.328125 C 6.210938 -5.722656 6.515625 -4.84375 6.515625 -3.6875 Z M 5.96875 -3.671875 C 5.96875 -4.703125 5.703125 -5.476562 5.171875 -6 C 4.648438 -6.53125 3.878906 -6.796875 2.859375 -6.796875 L 1.53125 -6.796875 L 1.53125 -0.453125 L 2.734375 -0.453125 C 4.890625 -0.453125 5.96875 -1.523438 5.96875 -3.671875 Z M 5.96875 -3.671875 "/></g></g></g><g fill="#545454" fill-opacity="1"><g transform="translate(221.317214, 245.766063)"><g><path d="M 3.078125 0.09375 C 2.296875 0.09375 1.6875 -0.144531 1.25 -0.625 C 0.8125 -1.101562 0.59375 -1.78125 0.59375 -2.65625 C 0.59375 -3.507812 0.800781 -4.191406 1.21875 -4.703125 C 1.644531 -5.222656 2.21875 -5.484375 2.9375 -5.484375 C 3.5625 -5.484375 4.054688 -5.257812 4.421875 -4.8125 C 4.796875 -4.375 4.984375 -3.773438 4.984375 -3.015625 L 4.984375 -2.625 L 1.109375 -2.625 C 1.109375 -1.882812 1.273438 -1.316406 1.609375 -0.921875 C 1.953125 -0.535156 2.441406 -0.34375 3.078125 -0.34375 C 3.378906 -0.34375 3.644531 -0.363281 3.875 -0.40625 C 4.113281 -0.445312 4.410156 -0.539062 4.765625 -0.6875 L 4.765625 -0.25 C 4.460938 -0.113281 4.179688 -0.0234375 3.921875 0.015625 C 3.671875 0.0664062 3.390625 0.09375 3.078125 0.09375 Z M 2.9375 -5.046875 C 2.414062 -5.046875 2 -4.875 1.6875 -4.53125 C 1.375 -4.195312 1.191406 -3.707031 1.140625 -3.0625 L 4.46875 -3.0625 C 4.46875 -3.6875 4.332031 -4.171875 4.0625 -4.515625 C 3.789062 -4.867188 3.414062 -5.046875 2.9375 -5.046875 Z M 2.9375 -5.046875 "/></g></g></g><g fill="#545454" fill-opacity="1"><g transform="translate(226.880529, 245.766063)"><g><path d="M 3.046875 0.09375 C 2.273438 0.09375 1.671875 -0.144531 1.234375 -0.625 C 0.804688 -1.113281 0.59375 -1.789062 0.59375 -2.65625 C 0.59375 -3.550781 0.816406 -4.242188 1.265625 -4.734375 C 1.722656 -5.234375 2.34375 -5.484375 3.125 -5.484375 C 3.59375 -5.484375 4.039062 -5.40625 4.46875 -5.25 L 4.328125 -4.8125 C 3.859375 -4.96875 3.453125 -5.046875 3.109375 -5.046875 C 2.453125 -5.046875 1.953125 -4.835938 1.609375 -4.421875 C 1.273438 -4.015625 1.109375 -3.429688 1.109375 -2.671875 C 1.109375 -1.941406 1.273438 -1.367188 1.609375 -0.953125 C 1.953125 -0.546875 2.429688 -0.34375 3.046875 -0.34375 C 3.523438 -0.34375 3.976562 -0.429688 4.40625 -0.609375 L 4.40625 -0.15625 C 4.0625 0.0078125 3.609375 0.09375 3.046875 0.09375 Z M 3.046875 0.09375 "/></g></g></g><g fill="#545454" fill-opacity="1"><g transform="translate(231.696466, 245.766063)"><g><path d="M 1.390625 0 L 0.90625 0 L 0.90625 -5.375 L 1.390625 -5.375 Z M 0.828125 -6.875 C 0.828125 -7.195312 0.929688 -7.359375 1.140625 -7.359375 C 1.242188 -7.359375 1.320312 -7.316406 1.375 -7.234375 C 1.4375 -7.148438 1.46875 -7.03125 1.46875 -6.875 C 1.46875 -6.726562 1.4375 -6.609375 1.375 -6.515625 C 1.320312 -6.429688 1.242188 -6.390625 1.140625 -6.390625 C 0.929688 -6.390625 0.828125 -6.550781 0.828125 -6.875 Z M 0.828125 -6.875 "/></g></g></g><g fill="#545454" fill-opacity="1"><g transform="translate(233.988123, 245.766063)"><g><path d="M 4.234375 -1.40625 C 4.234375 -0.914062 4.050781 -0.539062 3.6875 -0.28125 C 3.320312 -0.03125 2.800781 0.09375 2.125 0.09375 C 1.40625 0.09375 0.835938 -0.015625 0.421875 -0.234375 L 0.421875 -0.765625 C 0.960938 -0.492188 1.53125 -0.359375 2.125 -0.359375 C 2.65625 -0.359375 3.054688 -0.445312 3.328125 -0.625 C 3.609375 -0.800781 3.75 -1.035156 3.75 -1.328125 C 3.75 -1.597656 3.640625 -1.820312 3.421875 -2 C 3.203125 -2.1875 2.84375 -2.375 2.34375 -2.5625 C 1.800781 -2.75 1.421875 -2.910156 1.203125 -3.046875 C 0.984375 -3.191406 0.816406 -3.351562 0.703125 -3.53125 C 0.597656 -3.707031 0.546875 -3.921875 0.546875 -4.171875 C 0.546875 -4.578125 0.710938 -4.894531 1.046875 -5.125 C 1.390625 -5.363281 1.863281 -5.484375 2.46875 -5.484375 C 3.050781 -5.484375 3.601562 -5.375 4.125 -5.15625 L 3.953125 -4.71875 C 3.421875 -4.9375 2.925781 -5.046875 2.46875 -5.046875 C 2.03125 -5.046875 1.679688 -4.972656 1.421875 -4.828125 C 1.171875 -4.679688 1.046875 -4.476562 1.046875 -4.21875 C 1.046875 -3.9375 1.144531 -3.710938 1.34375 -3.546875 C 1.539062 -3.378906 1.929688 -3.191406 2.515625 -2.984375 C 3.003906 -2.804688 3.359375 -2.644531 3.578125 -2.5 C 3.796875 -2.363281 3.957031 -2.207031 4.0625 -2.03125 C 4.175781 -1.851562 4.234375 -1.644531 4.234375 -1.40625 Z M 4.234375 -1.40625 "/></g></g></g><g fill="#545454" fill-opacity="1"><g transform="translate(238.710012, 245.766063)"><g><path d="M 1.390625 0 L 0.90625 0 L 0.90625 -5.375 L 1.390625 -5.375 Z M 0.828125 -6.875 C 0.828125 -7.195312 0.929688 -7.359375 1.140625 -7.359375 C 1.242188 -7.359375 1.320312 -7.316406 1.375 -7.234375 C 1.4375 -7.148438 1.46875 -7.03125 1.46875 -6.875 C 1.46875 -6.726562 1.4375 -6.609375 1.375 -6.515625 C 1.320312 -6.429688 1.242188 -6.390625 1.140625 -6.390625 C 0.929688 -6.390625 0.828125 -6.550781 0.828125 -6.875 Z M 0.828125 -6.875 "/></g></g></g><g fill="#545454" fill-opacity="1"><g transform="translate(241.001668, 245.766063)"><g><path d="M 5.359375 -2.703125 C 5.359375 -1.816406 5.144531 -1.128906 4.71875 -0.640625 C 4.289062 -0.148438 3.703125 0.09375 2.953125 0.09375 C 2.484375 0.09375 2.066406 -0.015625 1.703125 -0.234375 C 1.335938 -0.460938 1.0625 -0.789062 0.875 -1.21875 C 0.6875 -1.644531 0.59375 -2.140625 0.59375 -2.703125 C 0.59375 -3.578125 0.800781 -4.257812 1.21875 -4.75 C 1.644531 -5.238281 2.234375 -5.484375 2.984375 -5.484375 C 3.722656 -5.484375 4.300781 -5.234375 4.71875 -4.734375 C 5.144531 -4.242188 5.359375 -3.566406 5.359375 -2.703125 Z M 1.109375 -2.703125 C 1.109375 -1.960938 1.269531 -1.382812 1.59375 -0.96875 C 1.914062 -0.550781 2.375 -0.34375 2.96875 -0.34375 C 3.5625 -0.34375 4.019531 -0.550781 4.34375 -0.96875 C 4.675781 -1.382812 4.84375 -1.960938 4.84375 -2.703125 C 4.84375 -3.441406 4.675781 -4.015625 4.34375 -4.421875 C 4.019531 -4.835938 3.5625 -5.046875 2.96875 -5.046875 C 2.363281 -5.046875 1.898438 -4.835938 1.578125 -4.421875 C 1.265625 -4.015625 1.109375 -3.441406 1.109375 -2.703125 Z M 1.109375 -2.703125 "/></g></g></g><g fill="#545454" fill-opacity="1"><g transform="translate(246.941151, 245.766063)"><g><path d="M 4.65625 0 L 4.65625 -3.484375 C 4.65625 -4.023438 4.539062 -4.421875 4.3125 -4.671875 C 4.082031 -4.921875 3.726562 -5.046875 3.25 -5.046875 C 2.601562 -5.046875 2.128906 -4.878906 1.828125 -4.546875 C 1.535156 -4.222656 1.390625 -3.695312 1.390625 -2.96875 L 1.390625 0 L 0.90625 0 L 0.90625 -5.375 L 1.3125 -5.375 L 1.40625 -4.640625 L 1.4375 -4.640625 C 1.789062 -5.203125 2.414062 -5.484375 3.3125 -5.484375 C 4.53125 -5.484375 5.140625 -4.828125 5.140625 -3.515625 L 5.140625 0 Z M 4.65625 0 "/></g></g></g><g fill="#545454" fill-opacity="1"><g transform="translate(252.920231, 245.766063)"><g/></g></g><g fill="#545454" fill-opacity="1"><g transform="translate(255.553402, 245.766063)"><g><path d="M 5.015625 -1.859375 C 5.015625 -1.253906 4.789062 -0.773438 4.34375 -0.421875 C 3.90625 -0.078125 3.316406 0.09375 2.578125 0.09375 C 1.691406 0.09375 1.015625 0 0.546875 -0.1875 L 0.546875 -0.703125 C 1.066406 -0.472656 1.734375 -0.359375 2.546875 -0.359375 C 3.140625 -0.359375 3.609375 -0.492188 3.953125 -0.765625 C 4.304688 -1.046875 4.484375 -1.40625 4.484375 -1.84375 C 4.484375 -2.125 4.425781 -2.351562 4.3125 -2.53125 C 4.195312 -2.707031 4.007812 -2.867188 3.75 -3.015625 C 3.488281 -3.171875 3.101562 -3.332031 2.59375 -3.5 C 1.851562 -3.75 1.34375 -4.019531 1.0625 -4.3125 C 0.78125 -4.613281 0.640625 -5.007812 0.640625 -5.5 C 0.640625 -6.039062 0.847656 -6.484375 1.265625 -6.828125 C 1.691406 -7.171875 2.238281 -7.34375 2.90625 -7.34375 C 3.59375 -7.34375 4.234375 -7.210938 4.828125 -6.953125 L 4.640625 -6.515625 C 4.046875 -6.765625 3.472656 -6.890625 2.921875 -6.890625 C 2.390625 -6.890625 1.960938 -6.765625 1.640625 -6.515625 C 1.328125 -6.273438 1.171875 -5.941406 1.171875 -5.515625 C 1.171875 -5.242188 1.21875 -5.019531 1.3125 -4.84375 C 1.40625 -4.675781 1.5625 -4.523438 1.78125 -4.390625 C 2.007812 -4.253906 2.394531 -4.09375 2.9375 -3.90625 C 3.5 -3.707031 3.921875 -3.515625 4.203125 -3.328125 C 4.484375 -3.148438 4.6875 -2.941406 4.8125 -2.703125 C 4.945312 -2.472656 5.015625 -2.191406 5.015625 -1.859375 Z M 5.015625 -1.859375 "/></g></g></g><g fill="#545454" fill-opacity="1"><g transform="translate(261.077121, 245.766063)"><g><path d="M 1.328125 -5.375 L 1.328125 -1.890625 C 1.328125 -1.347656 1.441406 -0.953125 1.671875 -0.703125 C 1.898438 -0.460938 2.253906 -0.34375 2.734375 -0.34375 C 3.367188 -0.34375 3.835938 -0.503906 4.140625 -0.828125 C 4.441406 -1.148438 4.59375 -1.675781 4.59375 -2.40625 L 4.59375 -5.375 L 5.078125 -5.375 L 5.078125 0 L 4.671875 0 L 4.578125 -0.75 L 4.546875 -0.75 C 4.191406 -0.1875 3.566406 0.09375 2.671875 0.09375 C 1.453125 0.09375 0.84375 -0.554688 0.84375 -1.859375 L 0.84375 -5.375 Z M 1.328125 -5.375 "/></g></g></g><g fill="#545454" fill-opacity="1"><g transform="translate(267.056201, 245.766063)"><g><path d="M 3.203125 0.09375 C 2.367188 0.09375 1.765625 -0.210938 1.390625 -0.828125 L 1.359375 -0.828125 L 1.375 -0.421875 C 1.382812 -0.171875 1.390625 0.0976562 1.390625 0.390625 L 1.390625 2.4375 L 0.90625 2.4375 L 0.90625 -5.375 L 1.3125 -5.375 L 1.40625 -4.609375 L 1.4375 -4.609375 C 1.8125 -5.191406 2.40625 -5.484375 3.21875 -5.484375 C 3.9375 -5.484375 4.488281 -5.242188 4.875 -4.765625 C 5.257812 -4.296875 5.453125 -3.601562 5.453125 -2.6875 C 5.453125 -1.800781 5.25 -1.113281 4.84375 -0.625 C 4.445312 -0.144531 3.898438 0.09375 3.203125 0.09375 Z M 3.1875 -0.34375 C 3.738281 -0.34375 4.164062 -0.546875 4.46875 -0.953125 C 4.769531 -1.359375 4.921875 -1.929688 4.921875 -2.671875 C 4.921875 -4.253906 4.351562 -5.046875 3.21875 -5.046875 C 2.582031 -5.046875 2.117188 -4.867188 1.828125 -4.515625 C 1.535156 -4.171875 1.390625 -3.613281 1.390625 -2.84375 L 1.390625 -2.671875 C 1.390625 -1.835938 1.53125 -1.238281 1.8125 -0.875 C 2.09375 -0.519531 2.550781 -0.34375 3.1875 -0.34375 Z M 3.1875 -0.34375 "/></g></g></g><g fill="#545454" fill-opacity="1"><g transform="translate(273.089732, 245.766063)"><g><path d="M 3.203125 0.09375 C 2.367188 0.09375 1.765625 -0.210938 1.390625 -0.828125 L 1.359375 -0.828125 L 1.375 -0.421875 C 1.382812 -0.171875 1.390625 0.0976562 1.390625 0.390625 L 1.390625 2.4375 L 0.90625 2.4375 L 0.90625 -5.375 L 1.3125 -5.375 L 1.40625 -4.609375 L 1.4375 -4.609375 C 1.8125 -5.191406 2.40625 -5.484375 3.21875 -5.484375 C 3.9375 -5.484375 4.488281 -5.242188 4.875 -4.765625 C 5.257812 -4.296875 5.453125 -3.601562 5.453125 -2.6875 C 5.453125 -1.800781 5.25 -1.113281 4.84375 -0.625 C 4.445312 -0.144531 3.898438 0.09375 3.203125 0.09375 Z M 3.1875 -0.34375 C 3.738281 -0.34375 4.164062 -0.546875 4.46875 -0.953125 C 4.769531 -1.359375 4.921875 -1.929688 4.921875 -2.671875 C 4.921875 -4.253906 4.351562 -5.046875 3.21875 -5.046875 C 2.582031 -5.046875 2.117188 -4.867188 1.828125 -4.515625 C 1.535156 -4.171875 1.390625 -3.613281 1.390625 -2.84375 L 1.390625 -2.671875 C 1.390625 -1.835938 1.53125 -1.238281 1.8125 -0.875 C 2.09375 -0.519531 2.550781 -0.34375 3.1875 -0.34375 Z M 3.1875 -0.34375 "/></g></g></g><g fill="#545454" fill-opacity="1"><g transform="translate(279.123263, 245.766063)"><g><path d="M 5.359375 -2.703125 C 5.359375 -1.816406 5.144531 -1.128906 4.71875 -0.640625 C 4.289062 -0.148438 3.703125 0.09375 2.953125 0.09375 C 2.484375 0.09375 2.066406 -0.015625 1.703125 -0.234375 C 1.335938 -0.460938 1.0625 -0.789062 0.875 -1.21875 C 0.6875 -1.644531 0.59375 -2.140625 0.59375 -2.703125 C 0.59375 -3.578125 0.800781 -4.257812 1.21875 -4.75 C 1.644531 -5.238281 2.234375 -5.484375 2.984375 -5.484375 C 3.722656 -5.484375 4.300781 -5.234375 4.71875 -4.734375 C 5.144531 -4.242188 5.359375 -3.566406 5.359375 -2.703125 Z M 1.109375 -2.703125 C 1.109375 -1.960938 1.269531 -1.382812 1.59375 -0.96875 C 1.914062 -0.550781 2.375 -0.34375 2.96875 -0.34375 C 3.5625 -0.34375 4.019531 -0.550781 4.34375 -0.96875 C 4.675781 -1.382812 4.84375 -1.960938 4.84375 -2.703125 C 4.84375 -3.441406 4.675781 -4.015625 4.34375 -4.421875 C 4.019531 -4.835938 3.5625 -5.046875 2.96875 -5.046875 C 2.363281 -5.046875 1.898438 -4.835938 1.578125 -4.421875 C 1.265625 -4.015625 1.109375 -3.441406 1.109375 -2.703125 Z M 1.109375 -2.703125 "/></g></g></g><g fill="#545454" fill-opacity="1"><g transform="translate(285.062746, 245.766063)"><g><path d="M 3.015625 -5.484375 C 3.242188 -5.484375 3.488281 -5.460938 3.75 -5.421875 L 3.65625 -4.953125 C 3.4375 -5.003906 3.207031 -5.03125 2.96875 -5.03125 C 2.5 -5.03125 2.117188 -4.832031 1.828125 -4.4375 C 1.535156 -4.050781 1.390625 -3.5625 1.390625 -2.96875 L 1.390625 0 L 0.90625 0 L 0.90625 -5.375 L 1.3125 -5.375 L 1.359375 -4.40625 L 1.40625 -4.40625 C 1.625 -4.800781 1.859375 -5.078125 2.109375 -5.234375 C 2.359375 -5.398438 2.660156 -5.484375 3.015625 -5.484375 Z M 3.015625 -5.484375 "/></g></g></g><g fill="#545454" fill-opacity="1"><g transform="translate(289.00757, 245.766063)"><g><path d="M 2.328125 -0.34375 C 2.628906 -0.34375 2.898438 -0.367188 3.140625 -0.421875 L 3.140625 -0.015625 C 2.898438 0.0546875 2.625 0.09375 2.3125 0.09375 C 1.832031 0.09375 1.476562 -0.03125 1.25 -0.28125 C 1.03125 -0.53125 0.921875 -0.929688 0.921875 -1.484375 L 0.921875 -4.953125 L 0.125 -4.953125 L 0.125 -5.25 L 0.921875 -5.46875 L 1.171875 -6.6875 L 1.421875 -6.6875 L 1.421875 -5.375 L 3 -5.375 L 3 -4.953125 L 1.421875 -4.953125 L 1.421875 -1.546875 C 1.421875 -1.140625 1.492188 -0.835938 1.640625 -0.640625 C 1.785156 -0.441406 2.015625 -0.34375 2.328125 -0.34375 Z M 2.328125 -0.34375 "/></g></g></g></svg>